<svg xmlns="http://www.w3.org/2000/svg" viewBox="0 0 100 160" role="img" aria-label="ЗабТехЭксперт">
  <defs>
    <linearGradient id="logoGrad" x1="0%" y1="0%" x2="100%" y2="100%">
      <stop offset="0%" stop-color="#c8e6c9"/>
      <stop offset="55%" stop-color="#66bb6a"/>
      <stop offset="100%" stop-color="#388e3c"/>
    </linearGradient>
    <linearGradient id="logoShine" x1="0%" y1="0%" x2="0%" y2="100%">
      <stop offset="0%" stop-color="#ffffff" stop-opacity="0.35"/>
      <stop offset="45%" stop-color="#ffffff" stop-opacity="0"/>
    </linearGradient>
  </defs>
  <!-- Основной щит -->
  <path fill="url(#logoGrad)" d="M50 4 L92 22 V72 C92 108 68 132 50 156 C32 132 8 108 8 72 V22 Z"/>
  <path fill="url(#logoShine)" d="M50 4 L92 22 V72 C92 108 68 132 50 156 C32 132 8 108 8 72 V22 Z"/>
  <path fill="none" stroke="#2e7d32" stroke-width="2" stroke-opacity="0.35" d="M50 4 L92 22 V72 C92 108 68 132 50 156 C32 132 8 108 8 72 V22 Z"/>
  <!-- Буква «З» (Забайкалье) -->
  <path fill="#fff" fill-opacity="0.95" d="M28 38 H72 V48 L42 78 H72 V90 H28 V78 L58 48 H28 Z"/>
  <!-- Акцент — знак проверки / экспертиза -->
  <path fill="none" stroke="#1b5e20" stroke-width="5" stroke-linecap="round" stroke-linejoin="round" d="M38 102 L46 112 L64 92"/>
</svg>
