<svg width="51" height="58" viewBox="0 0 51 58" fill="none" xmlns="http://www.w3.org/2000/svg">
<path d="M11.411 6.39599L0 20.5689L4.72431 20.0602C4.72431 20.0602 3.41604 34.015 6.90476 42.3008C10.4449 50.7086 24.203 58 24.203 58V0L11.411 6.39599Z" fill="url(#paint0_linear_139_1694)"/>
<path d="M38.8121 6.39599L50.2231 20.5689L45.4988 20.0602C45.4988 20.0602 46.8071 34.015 43.3184 42.3008C39.7783 50.7086 26.0201 58 26.0201 58V0L38.8121 6.39599Z" fill="url(#paint1_linear_139_1694)"/>
<path d="M32.7797 23.5488C30.89 22.7493 23.4038 20.9323 18.9702 28.5639H9.23085C8.94011 28.5639 8.72208 28.2005 8.72208 28.2005C8.43137 28.0551 7.9226 27.2556 8.72208 26.8195L10.6845 25.8746C10.6845 25.8746 10.5747 24.7308 10.9752 24.203C11.2465 23.8454 11.9201 23.5488 11.9201 23.5488C11.9201 22.5313 13.0103 17.2255 18.1707 15.4085L20.2785 21.223L19.3336 14.2456C19.3336 13.7368 19.5517 13.5914 19.9151 13.5914H24.494C25.0028 13.5914 25.3662 13.7368 25.3662 14.2456L24.8574 21.223L26.6018 15.5538C31.3261 16.8621 32.7797 21.005 32.7797 23.5488Z" fill="#FCFCFC"/>
<path d="M28.7095 24.1303C33.9275 24.1305 38.1585 28.3605 38.1587 33.5786C38.1587 35.6273 37.503 37.5217 36.395 39.0698L37.5034 40.1205C37.7941 39.9752 38.0853 39.9018 38.4487 39.9018C39.6194 40.9749 40.3319 41.5574 41.2231 42.2856C41.6597 42.6423 42.1249 43.0349 42.7222 43.5366C42.2279 44.554 40.9199 46.2977 40.4009 46.8793L36.1226 42.7368C35.9772 42.2281 35.9772 42.0097 36.1226 41.5737L34.9429 40.6752C33.2789 42.1381 31.0989 43.0277 28.7095 43.0278C23.4912 43.0277 19.2612 38.7968 19.2612 33.5786C19.2614 28.3604 23.4913 24.1304 28.7095 24.1303ZM28.7095 26.601C24.8561 26.6011 21.7321 29.7252 21.7319 33.5786C21.7319 37.432 24.856 40.556 28.7095 40.5561C32.5628 40.5559 35.687 37.432 35.687 33.5786C35.6868 29.7253 32.5627 26.6012 28.7095 26.601Z" fill="#FCFCFC"/>
<defs>
<linearGradient id="paint0_linear_139_1694" x1="19.9148" y1="1.52632" x2="20.6416" y2="49.9323" gradientUnits="userSpaceOnUse">
<stop stop-color="#D14F4F"/>
<stop offset="1" stop-color="#9B2C2C"/>
</linearGradient>
<linearGradient id="paint1_linear_139_1694" x1="38.1216" y1="0" x2="38.1216" y2="58" gradientUnits="userSpaceOnUse">
<stop stop-color="#CCCCCC"/>
<stop offset="1" stop-color="#666666"/>
</linearGradient>
</defs>
</svg>
