<svg width="57" height="66" viewBox="0 0 57 66" fill="none" xmlns="http://www.w3.org/2000/svg">
<path d="M12.8676 7.2179L0 23.2121L5.32736 22.638C5.32736 22.638 3.85209 38.3861 7.78615 47.7366C11.7782 57.2248 27.2925 65.4533 27.2925 65.4533V0L12.8676 7.2179Z" fill="#FCFCFC"/>
<path d="M43.813 7.2179L56.6807 23.2121L51.3533 22.638C51.3533 22.638 52.8286 38.3861 48.8945 47.7366C44.9025 57.2248 29.3882 65.4533 29.3882 65.4533V0L43.813 7.2179Z" fill="#FCFCFC"/>
<path d="M36.9911 26.5667C34.8585 25.6662 26.4102 23.6198 21.4068 32.2149H10.4158C10.0877 32.2149 9.84168 31.8056 9.84168 31.8056C9.51361 31.6419 8.93945 30.7415 9.84168 30.2503L12.0563 29.1861C12.0563 29.1861 11.9324 27.8979 12.3844 27.3034C12.6905 26.9007 13.4507 26.5667 13.4507 26.5667C13.4507 25.4207 14.681 19.445 20.5046 17.3985L22.8832 23.9472L21.8169 16.0888C21.8169 15.5158 22.063 15.3521 22.4731 15.3521H27.6405C28.2147 15.3521 28.6248 15.5158 28.6248 16.0888L28.0506 23.9472L30.0192 17.5622C35.3506 19.0357 36.9911 23.7016 36.9911 26.5667Z" fill="#1E1E1E"/>
<path d="M32.3945 27.2439C38.2806 27.2439 43.0522 32.0199 43.0522 37.9115C43.0522 40.2247 42.3164 42.3657 41.0666 44.1134L42.3144 45.2967C42.6423 45.1326 42.9703 45.0505 43.3802 45.0505C44.7009 46.2623 45.5046 46.9196 46.5101 47.7419C47.0024 48.1446 47.5271 48.587 48.2008 49.1534C47.6433 50.3022 46.1675 52.2716 45.5822 52.9281L40.7567 48.2508C40.5928 47.6764 40.5928 47.4302 40.7567 46.9378L39.4288 45.9253C37.5519 47.5771 35.0902 48.579 32.3945 48.579C26.5084 48.579 21.7368 43.803 21.7368 37.9115C21.7368 32.0199 26.5084 27.2439 32.3945 27.2439ZM32.3945 30.0339C28.0479 30.0339 24.5242 33.5608 24.5242 37.9115C24.5242 42.2621 28.0479 45.789 32.3945 45.789C36.7412 45.789 40.2648 42.2621 40.2648 37.9115C40.2648 33.5608 36.7412 30.0339 32.3945 30.0339Z" fill="#1E1E1E"/>
</svg>
